<?xml version="1.0" encoding="utf-8"?>
<!-- Generator: Adobe Illustrator 26.5.0, SVG Export Plug-In . SVG Version: 6.00 Build 0)  -->
<svg version="1.1" id="Layer_1" xmlns="http://www.w3.org/2000/svg" xmlns:xlink="http://www.w3.org/1999/xlink" x="0px" y="0px"
	 viewBox="0 0 22 20" style="enable-background:new 0 0 22 20;" xml:space="preserve">
<style type="text/css">
	.st0{fill-rule:evenodd;clip-rule:evenodd;fill:#FFFFFF;}
</style>
<path class="st0" d="M9.6,3.2L9,2.8C8.3,2.3,7.4,2,6.4,2H5.8C5.4,2,4.9,2,4.5,2.2C2,3.1,0.2,6.4,0.4,13.8c0,1.5,0.4,3.2,1.7,3.8
	C2.5,17.9,3,18,3.6,18c0.7,0,1.2-0.2,1.6-0.5c0.4-0.3,0.8-0.7,1.2-1c0.5-0.5,0.9-0.9,1.5-1.2c0.6-0.3,1.3-0.5,2-0.5h2.1
	c0.7,0,1.4,0.2,2,0.5c0.6,0.3,1,0.8,1.5,1.2c0.4,0.4,0.8,0.7,1.2,1c0.4,0.3,1,0.5,1.6,0.5c0.6,0,1.1-0.1,1.5-0.3
	c1.4-0.6,1.7-2.3,1.7-3.8C21.8,6.4,20,3.1,17.5,2.2C17.1,2,16.6,2,16.2,2h-0.7c-0.9,0-1.8,0.3-2.6,0.8l-0.5,0.4
	C12,3.5,11.5,3.7,11,3.7C10.5,3.7,10,3.5,9.6,3.2z M16.1,6.3c0.4,0,0.8,0.4,0.8,0.8c0,0.4-0.4,0.8-0.8,0.8s-0.8-0.4-0.8-0.8
	C15.3,6.6,15.6,6.3,16.1,6.3z M6.2,6.5C6.6,6.5,7,6.9,7,7.3v0.8h0.8c0.4,0,0.8,0.4,0.8,0.8c0,0.4-0.4,0.8-0.8,0.8H7v0.8
	c0,0.4-0.4,0.8-0.8,0.8c-0.4,0-0.8-0.4-0.8-0.8V9.7H4.6c-0.4,0-0.8-0.4-0.8-0.8c0-0.4,0.4-0.8,0.8-0.8h0.8V7.3
	C5.4,6.9,5.8,6.5,6.2,6.5z M18.5,8.7c0,0.4-0.4,0.8-0.8,0.8s-0.8-0.4-0.8-0.8c0-0.4,0.4-0.8,0.8-0.8S18.5,8.2,18.5,8.7z M14.5,9.5
	c0.4,0,0.8-0.4,0.8-0.8c0-0.4-0.4-0.8-0.8-0.8s-0.8,0.4-0.8,0.8C13.7,9.1,14,9.5,14.5,9.5z M16.9,10.3c0-0.4-0.4-0.8-0.8-0.8
	s-0.8,0.4-0.8,0.8c0,0.4,0.4,0.8,0.8,0.8S16.9,10.7,16.9,10.3z"/>
</svg>
