<svg width="21" height="20" viewBox="0 0 21 20" fill="none" xmlns="http://www.w3.org/2000/svg">
<path d="M2.2213 6.8429C2.01951 6.70046 1.91862 6.62924 1.83259 6.61186C1.64304 6.57354 1.44678 6.67523 1.36877 6.85219C1.33337 6.9325 1.33337 7.05464 1.33337 7.29891V12.7011C1.33336 13.3719 1.33336 13.9255 1.3702 14.3765C1.38997 14.6185 1.67203 14.7158 1.85193 14.5529L6.18043 10.6318C6.39131 10.4407 6.49675 10.3452 6.53037 10.2355C6.55985 10.1394 6.55355 10.0358 6.51265 9.94394C6.46599 9.83916 6.34977 9.75711 6.11731 9.59303L2.2213 6.8429Z" fill="white"/>
<path d="M2.74266 15.9948C2.57297 16.1485 2.48813 16.2254 2.45454 16.3353C2.42851 16.4204 2.4363 16.546 2.47268 16.6273C2.51961 16.7321 2.59699 16.7864 2.75177 16.8951C2.87926 16.9845 3.01341 17.0654 3.15341 17.1367C3.55785 17.3428 3.98844 17.4249 4.45685 17.4632C4.90785 17.5 5.46147 17.5 6.13227 17.5H14.8678C15.5386 17.5 16.0922 17.5 16.5432 17.4632C17.0116 17.4249 17.4422 17.3428 17.8467 17.1367C17.9867 17.0654 18.1208 16.9845 18.2483 16.8951C18.4031 16.7864 18.4805 16.7321 18.5274 16.6273C18.5638 16.5459 18.5716 16.4204 18.5455 16.3353C18.512 16.2254 18.4271 16.1485 18.2574 15.9948L13.1577 11.375C13.0602 11.2868 13.0115 11.2426 12.9588 11.2167C12.8589 11.1678 12.7435 11.1608 12.6384 11.1973C12.5829 11.2166 12.5292 11.2545 12.4218 11.3304C11.9658 11.6533 11.5653 11.9369 11.1086 12.0515C10.7091 12.1517 10.2911 12.1517 9.89162 12.0515C9.43489 11.9369 9.03446 11.6533 8.57838 11.3304C8.47092 11.2545 8.41719 11.2165 8.36166 11.1972C8.25661 11.1607 8.14132 11.1677 8.04146 11.2167C7.98867 11.2425 7.93992 11.2867 7.84242 11.375L2.74266 15.9948Z" fill="white"/>
<path d="M19.1482 14.5529C19.3281 14.7158 19.6101 14.6185 19.6299 14.3765C19.6667 13.9255 19.6667 13.3719 19.6667 12.7011V7.2989C19.6667 7.05472 19.6667 6.93263 19.6313 6.85235C19.5533 6.67533 19.357 6.57361 19.1674 6.61196C19.0814 6.62936 18.9806 6.70055 18.7789 6.84294L14.8828 9.59307C14.6504 9.75716 14.5342 9.83921 14.4875 9.94399C14.4466 10.0359 14.4403 10.1394 14.4698 10.2356C14.5034 10.3453 14.6088 10.4408 14.8197 10.6318L19.1482 14.5529Z" fill="white"/>
<path d="M19.0664 3.92274C19.1574 4.05265 19.2029 4.1176 19.2169 4.2164C19.2278 4.2934 19.2091 4.40075 19.1727 4.46951C19.1261 4.55774 19.0473 4.61337 18.8897 4.72461L11.5574 9.90041C10.9468 10.3314 10.8173 10.4063 10.7029 10.4349C10.5698 10.4684 10.4304 10.4684 10.2973 10.4349C10.183 10.4063 10.0534 10.3314 9.44286 9.90041L2.11038 4.72454C1.95278 4.6133 1.87399 4.55767 1.82737 4.46944C1.79105 4.40068 1.77234 4.29332 1.78325 4.21633C1.79726 4.11753 1.84275 4.05257 1.93374 3.92266C2.24564 3.47733 2.67004 3.1096 3.15341 2.86331C3.55785 2.65724 3.98844 2.5751 4.45685 2.53683C4.90785 2.49998 5.46148 2.49999 6.13228 2.5H14.8678C15.5386 2.49999 16.0922 2.49998 16.5432 2.53683C17.0116 2.5751 17.4422 2.65724 17.8467 2.86331C18.3301 3.10962 18.7545 3.47737 19.0664 3.92274Z" fill="white"/>
</svg>
