<svg width="20" height="20" viewBox="0 0 20 20" fill="none" xmlns="http://www.w3.org/2000/svg">
<path fill-rule="evenodd" clip-rule="evenodd" d="M12.2716 2.7041C11.9786 2.55756 11.7097 2.4231 11.4815 2.33397C11.2465 2.24217 10.9366 2.14833 10.5897 2.19958C10.1362 2.26658 9.73029 2.51744 9.46753 2.89311C9.26658 3.18043 9.2119 3.49963 9.18891 3.75088C9.16658 3.99484 9.1666 4.29545 9.16663 4.62306L9.16663 12.1126C8.67634 11.829 8.10711 11.6667 7.49996 11.6667C5.65901 11.6667 4.16663 13.1591 4.16663 15C4.16663 16.841 5.65901 18.3333 7.49996 18.3333C9.34002 18.3333 10.8319 16.8424 10.8333 15.0027L10.8333 15V4.65736C10.8333 4.28393 10.8341 4.06129 10.8486 3.90279L10.8512 3.87729L10.8751 3.88641C11.0234 3.94432 11.2229 4.04315 11.5569 4.21015L14.6273 5.74534C15.0389 5.95117 15.5395 5.78431 15.7453 5.37266C15.9511 4.96101 15.7843 4.46045 15.3726 4.25463L12.2716 2.7041Z" fill="white"/>
</svg>
