<svg width="21" height="20" viewBox="0 0 21 20" fill="none" xmlns="http://www.w3.org/2000/svg">
<path fill-rule="evenodd" clip-rule="evenodd" d="M1.55268 13.75C1.55268 10.7776 3.90981 8.33334 6.8597 8.33334C9.80959 8.33334 12.1667 10.7776 12.1667 13.75C12.1667 16.7224 9.80959 19.1667 6.8597 19.1667C6.25333 19.1667 5.66919 19.0625 5.1246 18.8703C5.03459 18.8386 4.97876 18.8189 4.93781 18.8054C4.93038 18.8029 4.9243 18.8009 4.91943 18.7994L4.91491 18.7999C4.88632 18.8031 4.84736 18.8083 4.77515 18.8182L2.27948 19.159C2.00944 19.1959 1.73842 19.0984 1.55377 18.8979C1.36912 18.6974 1.29418 18.4193 1.35308 18.1532L1.86254 15.8518C1.88024 15.7719 1.88971 15.7287 1.8958 15.697C1.89614 15.6952 1.89674 15.692 1.89674 15.692C1.89523 15.6867 1.89331 15.6801 1.89092 15.6722C1.87719 15.6268 1.85701 15.5648 1.82421 15.4644C1.6478 14.9244 1.55268 14.3476 1.55268 13.75Z" fill="white"/>
<path d="M4.78965 6.97717C5.43764 6.7756 6.12833 6.66668 6.84828 6.66668C10.7761 6.66668 13.8335 9.9089 13.8335 13.75C13.8335 14.428 13.7382 15.0874 13.5597 15.7136C14.0114 15.6325 14.4494 15.5113 14.8699 15.3538C14.9292 15.3316 14.9883 15.3089 15.0483 15.2884C15.0966 15.294 15.1448 15.3016 15.1929 15.3086L17.8704 15.7011C17.9968 15.7197 18.1402 15.7407 18.2652 15.7478C18.4037 15.7557 18.6188 15.7549 18.8469 15.6568C19.1316 15.5344 19.3607 15.3105 19.4897 15.0286C19.593 14.8029 19.5988 14.5878 19.5941 14.4493C19.5899 14.324 19.5721 14.1802 19.5565 14.0534L19.2181 11.3051C19.2093 11.2337 19.2048 11.1961 19.2022 11.1686C19.2168 11.1084 19.2443 11.0502 19.2663 10.9924C19.582 10.1649 19.7544 9.26822 19.7544 8.33334C19.7544 4.18606 16.3718 0.833344 12.2106 0.833344C8.51409 0.833344 5.43196 3.47904 4.78965 6.97717Z" fill="white"/>
</svg>
