<svg width="22" height="20" viewBox="0 0 22 20" fill="none" xmlns="http://www.w3.org/2000/svg">
<path fill-rule="evenodd" clip-rule="evenodd" d="M10.8625 4.72167e-05H11.1377C11.9331 -0.000383486 12.5237 -0.00070332 13.0354 0.136393C14.4157 0.506262 15.4939 1.58445 15.8638 2.96482C15.9462 3.27226 15.9789 3.60823 15.9919 4H17.8385C18.3657 3.99998 18.8205 3.99997 19.195 4.03057C19.5904 4.06287 19.9836 4.13419 20.362 4.32698C20.9265 4.6146 21.3854 5.07354 21.673 5.63803C21.8658 6.01641 21.9371 6.40963 21.9694 6.80497C22 7.17954 22 7.6343 22 8.16144V15.8386C22 16.3657 22 16.8205 21.9694 17.195C21.9371 17.5904 21.8658 17.9836 21.673 18.362C21.3854 18.9265 20.9265 19.3854 20.362 19.673C19.9836 19.8658 19.5904 19.9371 19.195 19.9694C18.8205 20 18.3658 20 17.8387 20H4.16148C3.63439 20 3.17951 20 2.80498 19.9694C2.40963 19.9371 2.01641 19.8658 1.63803 19.673C1.07355 19.3854 0.614604 18.9265 0.326984 18.362C0.13419 17.9836 0.0628738 17.5904 0.0305728 17.195C-2.94913e-05 16.8205 -1.54898e-05 16.3657 7.44128e-07 15.8386V8.16146C-1.54898e-05 7.63434 -2.9495e-05 7.17953 0.0305728 6.80497C0.0628738 6.40963 0.13419 6.01641 0.326984 5.63803C0.614604 5.07354 1.07355 4.6146 1.63803 4.32698C2.01641 4.13419 2.40963 4.06287 2.80498 4.03057C3.17954 3.99997 3.63431 3.99998 4.16145 4H6.00832C6.02125 3.60823 6.05402 3.27226 6.13639 2.96482C6.50626 1.58445 7.58445 0.506262 8.96482 0.136393C9.47647 -0.00070332 10.0671 -0.000383486 10.8625 4.72167e-05ZM8.00996 4C8.01915 3.74249 8.03642 3.60123 8.06825 3.48246C8.25318 2.79227 8.79228 2.25318 9.48246 2.06824C9.70474 2.00869 10.0057 2.0001 11.0001 2.0001C11.9945 2.0001 12.2955 2.00869 12.5177 2.06824C13.2079 2.25318 13.747 2.79227 13.9319 3.48246C13.9638 3.60123 13.981 3.74249 13.9902 4H8.00996ZM7 7C7.55229 7 8 7.44772 8 8V16C8 16.5523 7.55229 17 7 17C6.44772 17 6 16.5523 6 16V8C6 7.44772 6.44772 7 7 7ZM16 8C16 7.44772 15.5523 7 15 7C14.4477 7 14 7.44772 14 8V16C14 16.5523 14.4477 17 15 17C15.5523 17 16 16.5523 16 16V8Z" fill="white"/>
</svg>
