<svg width="20" height="20" viewBox="0 0 20 20" fill="none" xmlns="http://www.w3.org/2000/svg">
<path fill-rule="evenodd" clip-rule="evenodd" d="M12.5871 2.51894C12.7919 2.1068 13.2921 1.93872 13.7042 2.14354C15.2114 2.89253 16.25 4.4492 16.25 6.25001C16.25 8.05081 15.2114 9.60748 13.7042 10.3565C13.2921 10.5613 12.7919 10.3932 12.5871 9.98107C12.3823 9.56892 12.5504 9.06876 12.9625 8.86394C13.9249 8.38567 14.5834 7.39397 14.5834 6.25001C14.5834 5.10604 13.9249 4.11434 12.9625 3.63607C12.5504 3.43125 12.3823 2.93109 12.5871 2.51894Z" fill="white"/>
<path fill-rule="evenodd" clip-rule="evenodd" d="M14.2408 13.6284C14.4306 13.2091 14.9243 13.023 15.3436 13.2128C16.7419 13.8455 17.9784 14.8661 18.9887 16.1518C19.273 16.5137 19.2101 17.0376 18.8482 17.3219C18.4863 17.6063 17.9624 17.5434 17.6781 17.1815C16.8092 16.0756 15.7773 15.2384 14.6565 14.7312C14.2372 14.5415 14.0511 14.0477 14.2408 13.6284Z" fill="white"/>
<path fill-rule="evenodd" clip-rule="evenodd" d="M3.33338 6.25001C3.33338 3.7187 5.38541 1.66667 7.91671 1.66667C10.448 1.66667 12.5 3.7187 12.5 6.25001C12.5 8.78131 10.448 10.8333 7.91671 10.8333C5.38541 10.8333 3.33338 8.78131 3.33338 6.25001Z" fill="white"/>
<path fill-rule="evenodd" clip-rule="evenodd" d="M1.01144 16.1518C2.7546 13.9332 5.18099 12.5 7.91671 12.5C10.6524 12.5 13.0788 13.9332 14.822 16.1518C15.0191 16.4027 15.0557 16.744 14.9162 17.031C14.7768 17.3179 14.4857 17.5 14.1667 17.5H1.66671C1.3477 17.5 1.05668 17.3179 0.917221 17.031C0.777765 16.744 0.81435 16.4027 1.01144 16.1518Z" fill="white"/>
</svg>
