<svg width="20" height="20" viewBox="0 0 20 20" fill="none" xmlns="http://www.w3.org/2000/svg">
<path fill-rule="evenodd" clip-rule="evenodd" d="M9.99996 1.66666C5.39759 1.66666 1.66663 5.39762 1.66663 10C1.66663 11.1069 1.88289 12.1654 2.27626 13.134C2.31179 13.2215 2.33222 13.272 2.34623 13.3093L2.35049 13.3208L2.34996 13.3248C2.34579 13.3555 2.33889 13.3974 2.32555 13.4775L1.82741 16.4663C1.80506 16.6001 1.78005 16.7499 1.77023 16.88C1.75953 17.0218 1.7558 17.2474 1.85807 17.4858C1.98449 17.7806 2.21937 18.0155 2.51413 18.1419C2.75256 18.2442 2.97818 18.2404 3.11999 18.2297C3.25007 18.2199 3.39984 18.1949 3.5337 18.1725L6.5225 17.6744C6.60253 17.6611 6.64445 17.6542 6.67521 17.65L6.67917 17.6495L6.69068 17.6537C6.72798 17.6677 6.77848 17.6882 6.86597 17.7237C7.83454 18.1171 8.89303 18.3333 9.99996 18.3333C14.6023 18.3333 18.3333 14.6024 18.3333 10C18.3333 5.39762 14.6023 1.66666 9.99996 1.66666ZM6.66663 7.08333C6.20639 7.08333 5.83329 7.45643 5.83329 7.91666C5.83329 8.3769 6.20639 8.75 6.66663 8.75H9.99996C10.4602 8.75 10.8333 8.3769 10.8333 7.91666C10.8333 7.45643 10.4602 7.08333 9.99996 7.08333H6.66663ZM6.66663 10C6.20639 10 5.83329 10.3731 5.83329 10.8333C5.83329 11.2936 6.20639 11.6667 6.66663 11.6667H12.5C12.9602 11.6667 13.3333 11.2936 13.3333 10.8333C13.3333 10.3731 12.9602 10 12.5 10H6.66663Z" fill="white"/>
</svg>
