<svg width="20" height="20" viewBox="0 0 20 20" fill="none" xmlns="http://www.w3.org/2000/svg">
<path d="M12.9167 11.875C12.9167 12.4503 12.4503 12.9167 11.875 12.9167H8.75004V10.8333H11.875C12.4503 10.8333 12.9167 11.2997 12.9167 11.875Z" fill="white"/>
<path d="M11.4584 7.08333H8.75004V9.16666H11.4584C12.0337 9.16666 12.5 8.70029 12.5 8.125C12.5 7.5497 12.0337 7.08333 11.4584 7.08333Z" fill="white"/>
<path fill-rule="evenodd" clip-rule="evenodd" d="M10 0.833328C4.93743 0.833328 0.833374 4.93738 0.833374 10C0.833374 15.0626 4.93743 19.1667 10 19.1667C15.0627 19.1667 19.1667 15.0626 19.1667 10C19.1667 4.93738 15.0627 0.833328 10 0.833328ZM8.33337 4.16666C8.79361 4.16666 9.16671 4.53976 9.16671 5V5.41666H10V5C10 4.53976 10.3731 4.16666 10.8334 4.16666C11.2936 4.16666 11.6667 4.53976 11.6667 5V5.42456C13.0651 5.53094 14.1667 6.69932 14.1667 8.125C14.1667 8.75071 13.9545 9.32686 13.5982 9.78543C14.1999 10.2822 14.5834 11.0338 14.5834 11.875C14.5834 13.3708 13.3708 14.5833 11.875 14.5833H11.6667V15C11.6667 15.4602 11.2936 15.8333 10.8334 15.8333C10.3731 15.8333 10 15.4602 10 15V14.5833H9.16671V15C9.16671 15.4602 8.79361 15.8333 8.33337 15.8333C7.87314 15.8333 7.50004 15.4602 7.50004 15V14.5833H6.66671C6.20647 14.5833 5.83337 14.2102 5.83337 13.75C5.83337 13.2898 6.20647 12.9167 6.66671 12.9167H7.08337V7.08333H6.66671C6.20647 7.08333 5.83337 6.71023 5.83337 6.25C5.83337 5.78976 6.20647 5.41666 6.66671 5.41666H7.50004V5C7.50004 4.53976 7.87314 4.16666 8.33337 4.16666Z" fill="white"/>
</svg>
