<svg width="20" height="20" viewBox="0 0 20 20" fill="none" xmlns="http://www.w3.org/2000/svg">
<path fill-rule="evenodd" clip-rule="evenodd" d="M7.49999 6.66666C7.49999 3.445 10.1117 0.833328 13.3333 0.833328C14.0197 0.833328 14.6801 0.952216 15.2939 1.17122C15.563 1.26723 15.7641 1.4944 15.8269 1.77314C15.8896 2.05188 15.8051 2.34332 15.6031 2.54535L13.7335 4.43481C13.4683 4.70277 13.3357 4.83675 13.2733 4.9852C13.1857 5.19341 13.1863 5.42826 13.2751 5.63597C13.3384 5.78406 13.4718 5.91729 13.7384 6.18375C14.0056 6.45071 14.1392 6.58419 14.2875 6.64739C14.4957 6.73603 14.7308 6.73627 14.9391 6.64805C15.0876 6.58515 15.2215 6.45194 15.4892 6.18552L17.4092 4.27475C17.6085 4.07547 17.895 3.99041 18.1708 4.04867C18.4465 4.10693 18.6741 4.3006 18.7757 4.56346C19.0285 5.21705 19.1667 5.9267 19.1667 6.66666C19.1667 9.88832 16.555 12.5 13.3333 12.5C12.8572 12.5 12.3932 12.4428 11.9485 12.3344C11.7376 12.2831 11.6043 12.2507 11.5068 12.2312C11.4888 12.2275 11.474 12.2248 11.4622 12.2227C11.4591 12.2255 11.4557 12.2285 11.452 12.2319C11.4002 12.2786 11.3323 12.3462 11.2124 12.4661L6.00591 17.6726C4.99011 18.6884 3.34319 18.6884 2.3274 17.6726C1.3116 16.6568 1.3116 15.0099 2.3274 13.9941L7.53391 8.78756C7.65376 8.66771 7.72134 8.59977 7.7681 8.54799C7.78112 8.53358 7.77371 8.51744 7.76883 8.49316C7.74924 8.39571 7.71692 8.26236 7.66555 8.05147C7.55721 7.60675 7.49999 7.14282 7.49999 6.66666Z" fill="white"/>
</svg>
