<svg width="20" height="20" viewBox="0 0 20 20" fill="none" xmlns="http://www.w3.org/2000/svg">
<path fill-rule="evenodd" clip-rule="evenodd" d="M9.99992 0.833252C8.15897 0.833252 6.66659 2.32564 6.66659 4.16658V9.99992C6.66659 11.8409 8.15897 13.3333 9.99992 13.3333C11.8409 13.3333 13.3333 11.8409 13.3333 9.99992V4.16658C13.3333 2.32564 11.8409 0.833252 9.99992 0.833252Z" fill="white"/>
<path d="M4.99992 8.33325C4.99992 7.87301 4.62682 7.49992 4.16659 7.49992C3.70635 7.49992 3.33325 7.87301 3.33325 8.33325V9.99992C3.33325 13.4001 5.8788 16.2058 9.16815 16.6152C9.16711 16.6322 9.16659 16.6493 9.16659 16.6666V17.4999H6.66659C6.20635 17.4999 5.83325 17.873 5.83325 18.3333C5.83325 18.7935 6.20635 19.1666 6.66659 19.1666H13.3333C13.7935 19.1666 14.1666 18.7935 14.1666 18.3333C14.1666 17.873 13.7935 17.4999 13.3333 17.4999H10.8333V16.6666C10.8333 16.6493 10.8327 16.6322 10.8317 16.6152C14.121 16.2058 16.6666 13.4001 16.6666 9.99992V8.33325C16.6666 7.87301 16.2935 7.49992 15.8333 7.49992C15.373 7.49992 14.9999 7.87301 14.9999 8.33325V9.99992C14.9999 12.7613 12.7613 14.9999 9.99992 14.9999C7.23849 14.9999 4.99992 12.7613 4.99992 9.99992V8.33325Z" fill="white"/>
</svg>
