<svg width="20" height="20" viewBox="0 0 20 20" fill="none" xmlns="http://www.w3.org/2000/svg">
<path fill-rule="evenodd" clip-rule="evenodd" d="M18.0893 1.91058C16.8434 0.664674 14.8234 0.664672 13.5775 1.91058L4.14697 11.341C3.95237 11.5355 3.80515 11.6827 3.67616 11.8489C3.56213 11.9959 3.46061 12.1521 3.37265 12.3159C3.27313 12.5013 3.19846 12.6956 3.09975 12.9525L1.30557 17.6174C1.26816 17.7146 1.24999 17.816 1.25 17.9165C1.25001 18.1335 1.33491 18.3466 1.4941 18.5058C1.72697 18.7387 2.07513 18.8126 2.38251 18.6944L6.86562 16.9701C6.89108 16.9603 6.91705 16.9503 6.94314 16.9402L7.04739 16.9001C7.3042 16.8014 7.49854 16.7267 7.68392 16.6272C7.84779 16.5393 8.00401 16.4377 8.15094 16.3237C8.31717 16.1947 8.4643 16.0475 8.6588 15.8529L18.0893 6.42243C19.3352 5.17652 19.3352 3.1565 18.0893 1.91058ZM4.48416 13.9959L3.53423 16.4656L6.00401 15.5157L4.48416 13.9959Z" fill="white"/>
</svg>
