<svg width="20" height="20" viewBox="0 0 20 20" fill="none" xmlns="http://www.w3.org/2000/svg">
<path fill-rule="evenodd" clip-rule="evenodd" d="M12.9463 7.05372C11.3191 5.42654 8.68095 5.42654 7.05376 7.05372C5.42658 8.68091 5.42658 11.3191 7.05376 12.9463C7.3792 13.2717 7.3792 13.7994 7.05376 14.1248C6.72833 14.4502 6.20069 14.4502 5.87525 14.1248C3.59719 11.8467 3.59719 8.15327 5.87525 5.87521C8.15331 3.59715 11.8468 3.59715 14.1248 5.87521C16.4029 8.15327 16.4029 11.8467 14.1248 14.1248C13.7994 14.4502 13.2718 14.4502 12.9463 14.1248C12.6209 13.7994 12.6209 13.2717 12.9463 12.9463C14.5735 11.3191 14.5735 8.68091 12.9463 7.05372Z" fill="white"/>
<path fill-rule="evenodd" clip-rule="evenodd" d="M10.5893 9.41075C10.2639 9.08531 9.73622 9.08531 9.41078 9.41075C9.08535 9.73618 9.08535 10.2638 9.41078 10.5893C9.73622 10.9147 9.73622 11.4423 9.41078 11.7678C9.08535 12.0932 8.55771 12.0932 8.23227 11.7678C7.25596 10.7915 7.25596 9.20855 8.23227 8.23224C9.20858 7.25592 10.7915 7.25592 11.7678 8.23224C12.7441 9.20855 12.7441 10.7915 11.7678 11.7678C11.4424 12.0932 10.9147 12.0932 10.5893 11.7678C10.2639 11.4423 10.2639 10.9147 10.5893 10.5893C10.9147 10.2638 10.9147 9.73618 10.5893 9.41075Z" fill="white"/>
<path fill-rule="evenodd" clip-rule="evenodd" d="M15.3033 4.6967C12.3744 1.76777 7.62567 1.76777 4.69674 4.6967C1.76781 7.62563 1.76781 12.3744 4.69674 15.3033C5.02218 15.6287 5.02218 16.1564 4.69674 16.4818C4.3713 16.8073 3.84367 16.8073 3.51823 16.4818C-0.061577 12.902 -0.0615779 7.098 3.51823 3.51819C7.09803 -0.0616156 12.902 -0.0616156 16.4819 3.51819C20.0617 7.098 20.0617 12.902 16.4819 16.4818C16.1564 16.8073 15.6288 16.8073 15.3033 16.4818C14.9779 16.1564 14.9779 15.6287 15.3033 15.3033C18.2323 12.3744 18.2323 7.62563 15.3033 4.6967Z" fill="white"/>
</svg>
