<svg width="20" height="20" viewBox="0 0 20 20" fill="none" xmlns="http://www.w3.org/2000/svg">
<path fill-rule="evenodd" clip-rule="evenodd" d="M3.80672 1.66667C4.88 1.66681 5.95538 1.66681 7.02655 1.66667C7.23686 1.66665 7.44169 1.66662 7.61516 1.6808C7.80565 1.69636 8.03043 1.73308 8.25661 1.84833C8.57022 2.00812 8.82519 2.26309 8.98497 2.57669C9.10022 2.80288 9.13695 3.02766 9.15251 3.21815C9.16668 3.39162 9.16666 3.59645 9.16663 3.80678V7.02658C9.16666 7.2369 9.16668 7.44173 9.15251 7.6152C9.13695 7.8057 9.10022 8.03047 8.98497 8.25666C8.82519 8.57026 8.57022 8.82523 8.25661 8.98502C8.03043 9.10027 7.80565 9.13699 7.61516 9.15256C7.44169 9.16673 7.23686 9.1667 7.02653 9.16668H3.80673C3.59641 9.1667 3.39157 9.16673 3.21811 9.15256C3.02761 9.13699 2.80283 9.10027 2.57665 8.98502C2.26304 8.82523 2.00808 8.57026 1.84829 8.25666C1.73304 8.03047 1.69632 7.8057 1.68075 7.6152C1.66658 7.44174 1.6666 7.23691 1.66663 7.02659C1.66663 7.01774 1.66663 7.00888 1.66663 7.00001V3.83334C1.66663 3.82447 1.66663 3.81561 1.66663 3.80676C1.6666 3.59644 1.66658 3.39162 1.68075 3.21815C1.69632 3.02766 1.73304 2.80288 1.84829 2.57669C2.00808 2.26309 2.26304 2.00812 2.57665 1.84833C2.80283 1.73308 3.02761 1.69636 3.21811 1.6808C3.39157 1.66662 3.5964 1.66665 3.80672 1.66667Z" fill="white"/>
<path fill-rule="evenodd" clip-rule="evenodd" d="M3.80672 10.8333C4.88 10.8335 5.95538 10.8335 7.02655 10.8333C7.23686 10.8333 7.44169 10.8333 7.61516 10.8475C7.80565 10.863 8.03043 10.8998 8.25661 11.015C8.57022 11.1748 8.82519 11.4298 8.98497 11.7434C9.10022 11.9695 9.13695 12.1943 9.15251 12.3848C9.16668 12.5583 9.16666 12.7631 9.16663 12.9734V16.1932C9.16666 16.4036 9.16668 16.6084 9.15251 16.7819C9.13695 16.9724 9.10022 17.1971 8.98497 17.4233C8.82519 17.7369 8.57022 17.9919 8.25661 18.1517C8.03043 18.2669 7.80565 18.3037 7.61516 18.3192C7.44169 18.3334 7.23686 18.3334 7.02653 18.3333H3.80673C3.59641 18.3334 3.39157 18.3334 3.21811 18.3192C3.02761 18.3037 2.80283 18.2669 2.57665 18.1517C2.26304 17.9919 2.00808 17.7369 1.84829 17.4233C1.73304 17.1971 1.69632 16.9724 1.68075 16.7819C1.66658 16.6084 1.6666 16.4036 1.66663 16.1933C1.66663 16.1844 1.66663 16.1755 1.66663 16.1667V13C1.66663 12.9911 1.66663 12.9823 1.66663 12.9734C1.6666 12.7631 1.66658 12.5583 1.68075 12.3848C1.69632 12.1943 1.73304 11.9695 1.84829 11.7434C2.00808 11.4298 2.26304 11.1748 2.57665 11.015C2.80283 10.8998 3.02761 10.863 3.21811 10.8475C3.39157 10.8333 3.5964 10.8333 3.80672 10.8333Z" fill="white"/>
<path fill-rule="evenodd" clip-rule="evenodd" d="M12.9734 1.66667C14.0467 1.66681 15.122 1.66681 16.1932 1.66667C16.4035 1.66665 16.6084 1.66662 16.7818 1.6808C16.9723 1.69636 17.1971 1.73308 17.4233 1.84833C17.7369 2.00812 17.9919 2.26309 18.1516 2.57669C18.2669 2.80288 18.3036 3.02766 18.3192 3.21815C18.3334 3.39162 18.3333 3.59645 18.3333 3.80678V7.02658C18.3333 7.2369 18.3334 7.44173 18.3192 7.6152C18.3036 7.8057 18.2669 8.03047 18.1516 8.25666C17.9919 8.57026 17.7369 8.82523 17.4233 8.98502C17.1971 9.10027 16.9723 9.13699 16.7818 9.15256C16.6084 9.16673 16.4035 9.1667 16.1932 9.16668H12.9734C12.7631 9.1667 12.5582 9.16673 12.3848 9.15256C12.1943 9.13699 11.9695 9.10027 11.7433 8.98502C11.4297 8.82523 11.1747 8.57026 11.015 8.25666C10.8997 8.03047 10.863 7.8057 10.8474 7.6152C10.8332 7.44174 10.8333 7.23691 10.8333 7.02659C10.8333 7.01774 10.8333 7.00888 10.8333 7.00001V3.83334C10.8333 3.82447 10.8333 3.81561 10.8333 3.80676C10.8333 3.59644 10.8332 3.39162 10.8474 3.21815C10.863 3.02766 10.8997 2.80288 11.015 2.57669C11.1747 2.26309 11.4297 2.00812 11.7433 1.84833C11.9695 1.73308 12.1943 1.69636 12.3848 1.6808C12.5582 1.66662 12.7631 1.66665 12.9734 1.66667Z" fill="white"/>
<path fill-rule="evenodd" clip-rule="evenodd" d="M12.9734 10.8333C14.0467 10.8335 15.122 10.8335 16.1932 10.8333C16.4035 10.8333 16.6084 10.8333 16.7818 10.8475C16.9723 10.863 17.1971 10.8998 17.4233 11.015C17.7369 11.1748 17.9919 11.4298 18.1516 11.7434C18.2669 11.9695 18.3036 12.1943 18.3192 12.3848C18.3334 12.5583 18.3333 12.7631 18.3333 12.9734V16.1932C18.3333 16.4036 18.3334 16.6084 18.3192 16.7819C18.3036 16.9724 18.2669 17.1971 18.1516 17.4233C17.9919 17.7369 17.7369 17.9919 17.4233 18.1517C17.1971 18.2669 16.9723 18.3037 16.7818 18.3192C16.6084 18.3334 16.4035 18.3334 16.1932 18.3333H12.9734C12.7631 18.3334 12.5582 18.3334 12.3848 18.3192C12.1943 18.3037 11.9695 18.2669 11.7433 18.1517C11.4297 17.9919 11.1747 17.7369 11.015 17.4233C10.8997 17.1971 10.863 16.9724 10.8474 16.7819C10.8332 16.6084 10.8333 16.4036 10.8333 16.1933C10.8333 16.1844 10.8333 16.1755 10.8333 16.1667V13C10.8333 12.9911 10.8333 12.9823 10.8333 12.9734C10.8333 12.7631 10.8332 12.5583 10.8474 12.3848C10.863 12.1943 10.8997 11.9695 11.015 11.7434C11.1747 11.4298 11.4297 11.1748 11.7433 11.015C11.9695 10.8998 12.1943 10.863 12.3848 10.8475C12.5582 10.8333 12.7631 10.8333 12.9734 10.8333Z" fill="white"/>
</svg>
