<svg width="488" height="86" viewBox="0 0 488 86" fill="none" xmlns="http://www.w3.org/2000/svg">
<path d="M138.384 67V45.76V29.2H147.168L146.952 43.816H147.744C148.128 40.312 148.848 37.408 149.904 35.104C150.96 32.8 152.376 31.072 154.152 29.92C155.928 28.768 158.136 28.192 160.776 28.192C165 28.192 168.168 29.632 170.28 32.512C172.44 35.392 173.52 39.784 173.52 45.688V67H163.152V46.912C163.152 43.552 162.648 41.08 161.64 39.496C160.68 37.912 159.168 37.12 157.104 37.12C155.376 37.12 153.888 37.696 152.64 38.848C151.392 40 150.432 41.752 149.76 44.104C149.088 46.456 148.752 49.432 148.752 53.032V67H138.384ZM197.22 68.008C193.572 68.008 190.332 67.264 187.5 65.776C184.716 64.288 182.508 62.08 180.876 59.152C179.292 56.224 178.5 52.552 178.5 48.136C178.5 43.576 179.316 39.832 180.948 36.904C182.58 33.976 184.812 31.792 187.644 30.352C190.524 28.912 193.74 28.192 197.292 28.192C200.988 28.192 204.228 28.936 207.012 30.424C209.844 31.864 212.052 34.072 213.636 37.048C215.268 39.976 216.084 43.672 216.084 48.136C216.084 52.696 215.244 56.44 213.564 59.368C211.932 62.296 209.7 64.48 206.868 65.92C204.036 67.312 200.82 68.008 197.22 68.008ZM197.508 60.232C199.236 60.232 200.7 59.8 201.9 58.936C203.1 58.024 204.012 56.704 204.636 54.976C205.26 53.248 205.572 51.16 205.572 48.712C205.572 46.072 205.236 43.84 204.564 42.016C203.892 40.192 202.908 38.8 201.612 37.84C200.364 36.832 198.828 36.328 197.004 36.328C195.324 36.328 193.884 36.784 192.684 37.696C191.484 38.608 190.572 39.928 189.948 41.656C189.324 43.384 189.012 45.496 189.012 47.992C189.012 51.88 189.756 54.904 191.244 57.064C192.732 59.176 194.82 60.232 197.508 60.232ZM237.404 68.008C234.908 68.008 232.58 67.744 230.42 67.216C228.308 66.736 226.484 65.968 224.948 64.912C223.412 63.856 222.212 62.512 221.348 60.88C220.532 59.2 220.124 57.208 220.124 54.904L228.908 53.32C229.004 54.904 229.412 56.224 230.132 57.28C230.852 58.336 231.86 59.128 233.156 59.656C234.452 60.184 236.012 60.448 237.836 60.448C239.756 60.448 241.316 60.136 242.516 59.512C243.716 58.888 244.316 57.928 244.316 56.632C244.316 55.768 244.028 55.096 243.452 54.616C242.924 54.136 242.06 53.704 240.86 53.32C239.66 52.936 238.1 52.528 236.18 52.096C234.02 51.568 231.98 51.04 230.06 50.512C228.188 49.936 226.532 49.24 225.092 48.424C223.652 47.56 222.524 46.48 221.708 45.184C220.94 43.84 220.556 42.184 220.556 40.216C220.556 37.72 221.204 35.584 222.5 33.808C223.844 32.032 225.716 30.664 228.116 29.704C230.564 28.696 233.396 28.192 236.612 28.192C239.588 28.192 242.3 28.648 244.748 29.56C247.196 30.424 249.14 31.816 250.58 33.736C252.02 35.608 252.716 38.056 252.668 41.08L243.884 42.52C243.932 41.08 243.62 39.856 242.948 38.848C242.324 37.84 241.436 37.096 240.284 36.616C239.18 36.088 237.836 35.824 236.252 35.824C234.38 35.824 232.892 36.184 231.788 36.904C230.732 37.576 230.204 38.464 230.204 39.568C230.204 40.48 230.54 41.224 231.212 41.8C231.884 42.328 232.868 42.784 234.164 43.168C235.46 43.552 237.044 43.936 238.916 44.32C240.644 44.656 242.396 45.088 244.172 45.616C245.948 46.096 247.58 46.768 249.068 47.632C250.556 48.496 251.756 49.624 252.668 51.016C253.628 52.408 254.108 54.184 254.108 56.344C254.108 58.696 253.436 60.76 252.092 62.536C250.796 64.312 248.9 65.68 246.404 66.64C243.956 67.552 240.956 68.008 237.404 68.008ZM273.157 67.864C268.981 67.864 265.861 66.76 263.797 64.552C261.733 62.344 260.701 58.936 260.701 54.328V37.408H256.093V30.208H257.677C259.981 30.016 261.637 29.368 262.645 28.264C263.653 27.112 264.253 25.336 264.445 22.936L264.805 20.704H270.853V29.2H280.069V37.624H270.853V53.536C270.853 55.36 271.285 56.68 272.149 57.496C273.013 58.264 274.165 58.648 275.605 58.648C276.421 58.648 277.213 58.552 277.981 58.36C278.749 58.12 279.469 57.808 280.141 57.424V66.784C278.701 67.216 277.405 67.504 276.253 67.648C275.101 67.792 274.069 67.864 273.157 67.864ZM285.478 67V47.56V29.2H294.406L294.19 44.032H295.054C295.342 40.24 295.918 37.192 296.782 34.888C297.694 32.584 298.87 30.928 300.31 29.92C301.75 28.864 303.43 28.336 305.35 28.336C306.022 28.336 306.742 28.432 307.51 28.624C308.326 28.768 309.142 29.032 309.958 29.416L309.454 40.72C308.542 40.24 307.606 39.88 306.646 39.64C305.734 39.4 304.894 39.28 304.126 39.28C302.398 39.28 300.934 39.76 299.734 40.72C298.534 41.68 297.598 43.096 296.926 44.968C296.254 46.84 295.894 49.096 295.846 51.736V67H285.478ZM339.138 68.008C337.17 68.008 335.346 67.648 333.666 66.928C331.986 66.208 330.618 65.08 329.562 63.544C328.554 62.008 328.05 60.016 328.05 57.568C328.05 55.312 328.482 53.488 329.346 52.096C330.21 50.656 331.386 49.504 332.874 48.64C334.41 47.728 336.162 47.032 338.13 46.552C340.098 46.024 342.162 45.592 344.322 45.256C346.578 44.824 348.282 44.488 349.434 44.248C350.634 43.96 351.45 43.6 351.882 43.168C352.362 42.736 352.602 42.136 352.602 41.368C352.602 39.832 352.05 38.632 350.946 37.768C349.842 36.856 348.33 36.4 346.41 36.4C345.21 36.4 344.034 36.616 342.882 37.048C341.73 37.48 340.77 38.224 340.002 39.28C339.234 40.288 338.802 41.68 338.706 43.456L329.418 42.088C329.61 39.448 330.21 37.24 331.218 35.464C332.226 33.688 333.546 32.272 335.178 31.216C336.81 30.16 338.61 29.392 340.578 28.912C342.594 28.432 344.658 28.192 346.77 28.192C350.322 28.192 353.274 28.84 355.626 30.136C358.026 31.432 359.802 33.352 360.954 35.896C362.154 38.392 362.754 41.488 362.754 45.184V51.952C362.754 53.584 362.754 55.264 362.754 56.992C362.802 58.672 362.85 60.352 362.898 62.032C362.946 63.664 362.994 65.32 363.042 67H353.898C353.898 65.32 353.874 63.616 353.826 61.888C353.826 60.112 353.826 58.264 353.826 56.344H353.106C352.722 58.504 351.906 60.472 350.658 62.248C349.41 63.976 347.802 65.368 345.834 66.424C343.914 67.48 341.682 68.008 339.138 68.008ZM343.314 60.304C344.274 60.304 345.258 60.136 346.266 59.8C347.322 59.416 348.306 58.84 349.218 58.072C350.13 57.304 350.898 56.296 351.522 55.048C352.146 53.8 352.53 52.336 352.674 50.656V47.632L354.474 47.56C353.946 48.184 353.154 48.688 352.098 49.072C351.09 49.456 349.986 49.768 348.786 50.008C347.586 50.2 346.362 50.416 345.114 50.656C343.914 50.848 342.786 51.16 341.73 51.592C340.722 51.976 339.906 52.504 339.282 53.176C338.658 53.848 338.346 54.76 338.346 55.912C338.346 57.304 338.802 58.384 339.714 59.152C340.674 59.92 341.874 60.304 343.314 60.304ZM369.079 77.944V44.896V29.2H378.079L377.935 40.648L378.655 40.72C379.183 37.888 379.999 35.56 381.103 33.736C382.207 31.864 383.599 30.472 385.279 29.56C386.959 28.648 388.951 28.192 391.255 28.192C394.279 28.192 396.895 28.96 399.103 30.496C401.311 32.032 402.991 34.288 404.143 37.264C405.343 40.192 405.943 43.792 405.943 48.064C405.943 52.384 405.343 56.032 404.143 59.008C402.943 61.984 401.239 64.24 399.031 65.776C396.871 67.264 394.351 68.008 391.471 68.008C389.167 68.008 387.175 67.528 385.495 66.568C383.815 65.608 382.423 64.192 381.319 62.32C380.215 60.448 379.399 58.12 378.871 55.336L378.007 55.408C378.295 56.896 378.535 58.384 378.727 59.872C378.967 61.36 379.135 62.824 379.231 64.264C379.375 65.656 379.447 67 379.447 68.296V77.944H369.079ZM387.727 59.44C389.407 59.44 390.799 58.96 391.903 58C393.055 56.992 393.895 55.648 394.423 53.968C394.999 52.288 395.287 50.392 395.287 48.28C395.287 46.12 394.999 44.2 394.423 42.52C393.847 40.792 392.983 39.448 391.831 38.488C390.679 37.528 389.287 37.048 387.655 37.048C386.407 37.048 385.279 37.336 384.271 37.912C383.263 38.44 382.375 39.208 381.607 40.216C380.887 41.176 380.335 42.328 379.951 43.672C379.567 44.968 379.375 46.384 379.375 47.92V48.712C379.375 49.912 379.495 51.04 379.735 52.096C380.023 53.152 380.407 54.136 380.887 55.048C381.367 55.912 381.943 56.68 382.615 57.352C383.335 58.024 384.127 58.552 384.991 58.936C385.855 59.272 386.767 59.44 387.727 59.44ZM411.407 77.944V44.896V29.2H420.407L420.263 40.648L420.983 40.72C421.511 37.888 422.327 35.56 423.431 33.736C424.535 31.864 425.927 30.472 427.607 29.56C429.287 28.648 431.279 28.192 433.583 28.192C436.607 28.192 439.223 28.96 441.431 30.496C443.639 32.032 445.319 34.288 446.471 37.264C447.671 40.192 448.271 43.792 448.271 48.064C448.271 52.384 447.671 56.032 446.471 59.008C445.271 61.984 443.567 64.24 441.359 65.776C439.199 67.264 436.679 68.008 433.799 68.008C431.495 68.008 429.503 67.528 427.823 66.568C426.143 65.608 424.751 64.192 423.647 62.32C422.543 60.448 421.727 58.12 421.199 55.336L420.335 55.408C420.623 56.896 420.863 58.384 421.055 59.872C421.295 61.36 421.463 62.824 421.559 64.264C421.703 65.656 421.775 67 421.775 68.296V77.944H411.407ZM430.055 59.44C431.735 59.44 433.127 58.96 434.231 58C435.383 56.992 436.223 55.648 436.751 53.968C437.327 52.288 437.615 50.392 437.615 48.28C437.615 46.12 437.327 44.2 436.751 42.52C436.175 40.792 435.311 39.448 434.159 38.488C433.007 37.528 431.615 37.048 429.983 37.048C428.735 37.048 427.607 37.336 426.599 37.912C425.591 38.44 424.703 39.208 423.935 40.216C423.215 41.176 422.663 42.328 422.279 43.672C421.895 44.968 421.703 46.384 421.703 47.92V48.712C421.703 49.912 421.823 51.04 422.063 52.096C422.351 53.152 422.735 54.136 423.215 55.048C423.695 55.912 424.271 56.68 424.943 57.352C425.663 58.024 426.455 58.552 427.319 58.936C428.183 59.272 429.095 59.44 430.055 59.44ZM469.646 68.008C467.15 68.008 464.822 67.744 462.662 67.216C460.55 66.736 458.726 65.968 457.19 64.912C455.654 63.856 454.454 62.512 453.59 60.88C452.774 59.2 452.366 57.208 452.366 54.904L461.15 53.32C461.246 54.904 461.654 56.224 462.374 57.28C463.094 58.336 464.102 59.128 465.398 59.656C466.694 60.184 468.254 60.448 470.078 60.448C471.998 60.448 473.558 60.136 474.758 59.512C475.958 58.888 476.558 57.928 476.558 56.632C476.558 55.768 476.27 55.096 475.694 54.616C475.166 54.136 474.302 53.704 473.102 53.32C471.902 52.936 470.342 52.528 468.422 52.096C466.262 51.568 464.222 51.04 462.302 50.512C460.43 49.936 458.774 49.24 457.334 48.424C455.894 47.56 454.766 46.48 453.95 45.184C453.182 43.84 452.798 42.184 452.798 40.216C452.798 37.72 453.446 35.584 454.742 33.808C456.086 32.032 457.958 30.664 460.358 29.704C462.806 28.696 465.638 28.192 468.854 28.192C471.83 28.192 474.542 28.648 476.99 29.56C479.438 30.424 481.382 31.816 482.822 33.736C484.262 35.608 484.958 38.056 484.91 41.08L476.126 42.52C476.174 41.08 475.862 39.856 475.19 38.848C474.566 37.84 473.678 37.096 472.526 36.616C471.422 36.088 470.078 35.824 468.494 35.824C466.622 35.824 465.134 36.184 464.03 36.904C462.974 37.576 462.446 38.464 462.446 39.568C462.446 40.48 462.782 41.224 463.454 41.8C464.126 42.328 465.11 42.784 466.406 43.168C467.702 43.552 469.286 43.936 471.158 44.32C472.886 44.656 474.638 45.088 476.414 45.616C478.19 46.096 479.822 46.768 481.31 47.632C482.798 48.496 483.998 49.624 484.91 51.016C485.87 52.408 486.35 54.184 486.35 56.344C486.35 58.696 485.678 60.76 484.334 62.536C483.038 64.312 481.142 65.68 478.646 66.64C476.198 67.552 473.198 68.008 469.646 68.008Z" fill="white"/>
<path d="M56 73V44.8269L84.1138 13H109V41.1732L80.8863 73H56Z" fill="#B9B9B9"/>
<path d="M0 73V44.8269L28.1138 13H53V41.1732L24.8863 73H0Z" fill="white"/>
<path d="M81 73V44.8269L52.8863 13H28V41.1732L56.1138 73H81Z" fill="white"/>
</svg>
